<svg width="24" height="24" viewBox="0 0 24 24" fill="none" xmlns="http://www.w3.org/2000/svg">
<g clip-path="url(#clip0_769_52)">
<path d="M21.247 19.5469C19.8786 17.1813 17.77 15.4851 15.3092 14.6809C16.5264 13.9563 17.4721 12.8522 18.0011 11.538C18.53 10.2239 18.613 8.77246 18.2372 7.40661C17.8614 6.04077 17.0477 4.83603 15.921 3.97743C14.7942 3.11882 13.4168 2.65381 12.0002 2.65381C10.5837 2.65381 9.20618 3.11882 8.07947 3.97743C6.95273 4.83603 6.139 6.04077 5.76322 7.40661C5.38745 8.77246 5.47041 10.2239 5.99937 11.538C6.52834 12.8522 7.47405 13.9563 8.69127 14.6809C6.23046 15.4841 4.12183 17.1804 2.75351 19.5469C2.70333 19.6287 2.67005 19.7197 2.65562 19.8146C2.6412 19.9095 2.64592 20.0063 2.66953 20.0994C2.69312 20.1924 2.73512 20.2798 2.79303 20.3563C2.85094 20.4329 2.9236 20.497 3.00671 20.545C3.08982 20.593 3.18171 20.6239 3.27694 20.6359C3.37219 20.6477 3.46884 20.6405 3.56122 20.6144C3.6536 20.5884 3.73983 20.5441 3.81482 20.4842C3.88981 20.4243 3.95204 20.35 3.99784 20.2656C5.6905 17.3403 8.68228 15.5938 12.0002 15.5938C15.3181 15.5938 18.3099 17.3403 20.0026 20.2656C20.0484 20.35 20.1106 20.4243 20.1857 20.4842C20.2606 20.5441 20.3469 20.5884 20.4392 20.6144C20.5316 20.6405 20.6283 20.6477 20.7235 20.6359C20.8187 20.6239 20.9107 20.593 20.9937 20.545C21.0768 20.497 21.1495 20.4329 21.2074 20.3563C21.2654 20.2798 21.3073 20.1924 21.3309 20.0994C21.3546 20.0063 21.3592 19.9095 21.3449 19.8146C21.3304 19.7197 21.2971 19.6287 21.247 19.5469ZM6.96898 9.125C6.96898 8.12989 7.26405 7.15717 7.81691 6.32979C8.36977 5.50241 9.15551 4.85754 10.0749 4.47673C10.9942 4.09593 12.0058 3.9963 12.9818 4.19042C13.9578 4.38456 14.8543 4.86374 15.5578 5.56737C16.2615 6.271 16.7407 7.16749 16.9348 8.14348C17.129 9.1194 17.0293 10.131 16.6485 11.0504C16.2677 11.9697 15.6228 12.7555 14.7955 13.3083C13.968 13.8612 12.9953 14.1563 12.0002 14.1563C10.6663 14.1548 9.38737 13.6243 8.44416 12.6811C7.50094 11.7378 6.97041 10.4589 6.96898 9.125Z" fill="white"/>
</g>
<defs>
<clipPath id="clip0_769_52">
<rect width="24" height="24" fill="white"/>
</clipPath>
</defs>
</svg>
