<svg width="24" height="24" viewBox="0 0 24 24" fill="none" xmlns="http://www.w3.org/2000/svg">
<g clip-path="url(#clip0_769_64)">
<path d="M12 2.65625C10.1519 2.65625 8.34544 3.20425 6.80889 4.23096C5.27232 5.25766 4.07471 6.71696 3.3675 8.42429C2.6603 10.1317 2.47526 12.0103 2.83579 13.8229C3.19633 15.6354 4.08622 17.3003 5.39298 18.607C6.69972 19.9138 8.36463 20.8037 10.1771 21.1642C11.9897 21.5247 13.8684 21.3397 15.5757 20.6325C17.283 19.9253 18.7424 18.7277 19.769 17.1911C20.7958 15.6546 21.3438 13.8481 21.3438 12C21.3412 9.52268 20.3559 7.14759 18.6042 5.39586C16.8524 3.64414 14.4773 2.65887 12 2.65625ZM9.63086 15.5938H14.3692C13.8867 17.2415 13.0781 18.7266 12 19.8963C10.9219 18.7266 10.1133 17.2415 9.63086 15.5938ZM9.30469 14.1562C9.06628 12.7287 9.06628 11.2713 9.30469 9.84375H14.6953C14.9337 11.2713 14.9337 12.7287 14.6953 14.1562H9.30469ZM4.09376 12C4.09313 11.2708 4.19382 10.5452 4.39294 9.84375H7.84836C7.63389 11.2733 7.63389 12.7267 7.84836 14.1562H4.39294C4.19382 13.4548 4.09313 12.7292 4.09376 12ZM14.3692 8.40625H9.63086C10.1133 6.75852 10.9219 5.2734 12 4.10363C13.0781 5.2734 13.8867 6.75852 14.3692 8.40625ZM16.1517 9.84375H19.6071C20.006 11.2536 20.006 12.7464 19.6071 14.1562H16.1517C16.3661 12.7267 16.3661 11.2733 16.1517 9.84375ZM19.0411 8.40625H15.8579C15.4911 6.96292 14.8751 5.59472 14.0377 4.36328C15.1076 4.6508 16.1054 5.15905 16.9671 5.85534C17.8288 6.55164 18.5353 7.42056 19.0411 8.40625ZM9.96234 4.36328C9.12493 5.59472 8.50889 6.96292 8.14211 8.40625H4.95895C5.4647 7.42056 6.17115 6.55164 7.03285 5.85534C7.89457 5.15905 8.89241 4.6508 9.96234 4.36328ZM4.95895 15.5938H8.14211C8.50889 17.0371 9.12493 18.4053 9.96234 19.6367C8.89241 19.3492 7.89457 18.8409 7.03285 18.1447C6.17115 17.4483 5.4647 16.5794 4.95895 15.5938ZM14.0377 19.6367C14.8751 18.4053 15.4911 17.0371 15.8579 15.5938H19.0411C18.5353 16.5794 17.8288 17.4483 16.9671 18.1447C16.1054 18.8409 15.1076 19.3492 14.0377 19.6367Z" fill="white"/>
</g>
<defs>
<clipPath id="clip0_769_64">
<rect width="24" height="24" fill="white"/>
</clipPath>
</defs>
</svg>
