<svg width="21" height="18" viewBox="0 0 21 18" fill="none" xmlns="http://www.w3.org/2000/svg">
<path d="M18.75 0H1.5625C1.1481 0 0.750672 0.164617 0.457648 0.457649C0.164617 0.750672 0 1.1481 0 1.5625V15.625C0 16.0394 0.164617 16.4368 0.457648 16.7298C0.750672 17.0229 1.1481 17.1875 1.5625 17.1875H18.75C19.1644 17.1875 19.5618 17.0229 19.8548 16.7298C20.1479 16.4368 20.3125 16.0394 20.3125 15.625V1.5625C20.3125 1.1481 20.1479 0.750672 19.8548 0.457649C19.5618 0.164617 19.1644 0 18.75 0ZM18.75 15.625H1.5625V1.5625H18.75V15.625ZM14.8438 4.6875C14.8438 5.9307 14.3499 7.12297 13.4708 8.00203C12.5917 8.88117 11.3995 9.375 10.1562 9.375C8.91305 9.375 7.72078 8.88117 6.84172 8.00203C5.96258 7.12297 5.46875 5.9307 5.46875 4.6875C5.46875 4.48031 5.55109 4.28156 5.69758 4.13508C5.84406 3.98859 6.04281 3.90625 6.25 3.90625C6.45719 3.90625 6.65594 3.98859 6.80242 4.13508C6.94891 4.28156 7.03125 4.48031 7.03125 4.6875C7.03125 5.51633 7.36047 6.31117 7.94656 6.89719C8.53258 7.48328 9.32742 7.8125 10.1562 7.8125C10.9851 7.8125 11.7799 7.48328 12.3659 6.89719C12.952 6.31117 13.2812 5.51633 13.2812 4.6875C13.2812 4.48031 13.3636 4.28156 13.5101 4.13508C13.6566 3.98859 13.8553 3.90625 14.0625 3.90625C14.2697 3.90625 14.4684 3.98859 14.6149 4.13508C14.7614 4.28156 14.8438 4.48031 14.8438 4.6875Z" fill="white"/>
</svg>
