<svg width="24" height="24" viewBox="0 0 24 24" fill="none" xmlns="http://www.w3.org/2000/svg">
<g clip-path="url(#clip0_769_56)">
<path d="M20.5938 3.40625H3.40625C2.99185 3.40625 2.59442 3.57087 2.3014 3.8639C2.00837 4.15692 1.84375 4.55435 1.84375 4.96875V19.0312C1.84375 19.4456 2.00837 19.843 2.3014 20.1361C2.59442 20.4291 2.99185 20.5938 3.40625 20.5938H20.5938C21.0081 20.5938 21.4055 20.4291 21.6986 20.1361C21.9916 19.843 22.1562 19.4456 22.1562 19.0312V4.96875C22.1562 4.55435 21.9916 4.15692 21.6986 3.8639C21.4055 3.57087 21.0081 3.40625 20.5938 3.40625ZM20.5938 19.0312H3.40625V4.96875H20.5938V19.0312ZM16.6875 8.09375C16.6875 9.33695 16.1937 10.5292 15.3145 11.4083C14.4355 12.2874 13.2432 12.7812 12 12.7812C10.7568 12.7812 9.56453 12.2874 8.68547 11.4083C7.80633 10.5292 7.3125 9.33695 7.3125 8.09375C7.3125 7.88656 7.39484 7.68781 7.54133 7.54133C7.68781 7.39484 7.88656 7.3125 8.09375 7.3125C8.30094 7.3125 8.49969 7.39484 8.64617 7.54133C8.79266 7.68781 8.875 7.88656 8.875 8.09375C8.875 8.92258 9.20422 9.71742 9.79031 10.3034C10.3763 10.8895 11.1712 11.2188 12 11.2188C12.8288 11.2188 13.6237 10.8895 14.2097 10.3034C14.7958 9.71742 15.125 8.92258 15.125 8.09375C15.125 7.88656 15.2073 7.68781 15.3538 7.54133C15.5003 7.39484 15.6991 7.3125 15.9062 7.3125C16.1134 7.3125 16.3122 7.39484 16.4587 7.54133C16.6052 7.68781 16.6875 7.88656 16.6875 8.09375Z" fill="white"/>
</g>
<defs>
<clipPath id="clip0_769_56">
<rect width="24" height="24" fill="white"/>
</clipPath>
</defs>
</svg>
