<svg width="19" height="19" viewBox="0 0 19 19" fill="none" xmlns="http://www.w3.org/2000/svg">
<path d="M9.34375 0C7.4957 0 5.68919 0.548004 4.15264 1.57471C2.61607 2.60141 1.41846 4.06071 0.711253 5.76804C0.00404614 7.47543 -0.180989 9.3541 0.179543 11.1666C0.540076 12.9791 1.42997 14.644 2.73673 15.9508C4.04347 17.2575 5.70838 18.1474 7.52086 18.508C9.3334 18.8685 11.2121 18.6835 12.9195 17.9762C14.6268 17.269 16.0861 16.0715 17.1128 14.5349C18.1395 12.9983 18.6875 11.1918 18.6875 9.34375C18.6849 6.86644 17.6997 4.49134 15.9479 2.73961C14.1962 0.987886 11.8211 0.00261625 9.34375 0ZM6.97461 12.9375H11.713C11.2305 14.5852 10.4219 16.0703 9.34375 17.2401C8.26562 16.0703 7.45703 14.5852 6.97461 12.9375ZM6.64844 11.5C6.41003 10.0724 6.41003 8.61508 6.64844 7.1875H12.0391C12.2775 8.61508 12.2775 10.0724 12.0391 11.5H6.64844ZM1.43751 9.34375C1.43688 8.61458 1.53757 7.88893 1.73669 7.1875H5.19211C4.97765 8.61702 4.97765 10.0705 5.19211 11.5H1.73669C1.53757 10.7986 1.43688 10.0729 1.43751 9.34375ZM11.713 5.75H6.97461C7.45703 4.10227 8.26562 2.61715 9.34375 1.44738C10.4219 2.61715 11.2305 4.10227 11.713 5.75ZM13.4955 7.1875H16.9509C17.3498 8.59733 17.3498 10.0902 16.9509 11.5H13.4955C13.7099 10.0705 13.7099 8.61702 13.4955 7.1875ZM16.3848 5.75H13.2016C12.8349 4.30667 12.2188 2.93847 11.3814 1.70703C12.4513 1.99455 13.4492 2.5028 14.3109 3.19909C15.1726 3.89539 15.8791 4.76431 16.3848 5.75ZM7.30609 1.70703C6.46868 2.93847 5.85264 4.30667 5.48586 5.75H2.3027C2.80845 4.76431 3.5149 3.89539 4.3766 3.19909C5.23832 2.5028 6.23616 1.99455 7.30609 1.70703ZM2.3027 12.9375H5.48586C5.85264 14.3808 6.46868 15.749 7.30609 16.9805C6.23616 16.693 5.23832 16.1847 4.3766 15.4884C3.5149 14.7921 2.80845 13.9232 2.3027 12.9375ZM11.3814 16.9805C12.2188 15.749 12.8349 14.3808 13.2016 12.9375H16.3848C15.8791 13.9232 15.1726 14.7921 14.3109 15.4884C13.4492 16.1847 12.4513 16.693 11.3814 16.9805Z" fill="white"/>
</svg>
