<svg width="21" height="16" viewBox="0 0 21 16" fill="none" xmlns="http://www.w3.org/2000/svg">
<path d="M21 7.875C21 8.10705 20.9078 8.32965 20.7437 8.49371C20.5796 8.65777 20.357 8.75 20.125 8.75H0.875C0.642933 8.75 0.420376 8.65777 0.256279 8.49371C0.0921901 8.32965 0 8.10705 0 7.875C0 7.64295 0.0921901 7.42035 0.256279 7.25629C0.420376 7.09223 0.642933 7 0.875 7H20.125C20.357 7 20.5796 7.09223 20.7437 7.25629C20.9078 7.42035 21 7.64295 21 7.875ZM0.875 1.75H20.125C20.357 1.75 20.5796 1.65781 20.7437 1.49372C20.9078 1.32962 21 1.10707 21 0.875C21 0.642933 20.9078 0.420376 20.7437 0.256279C20.5796 0.0921901 20.357 0 20.125 0H0.875C0.642933 0 0.420376 0.0921901 0.256279 0.256279C0.0921901 0.420376 0 0.642933 0 0.875C0 1.10707 0.0921901 1.32962 0.256279 1.49372C0.420376 1.65781 0.642933 1.75 0.875 1.75ZM20.125 14H0.875C0.642933 14 0.420376 14.0922 0.256279 14.2563C0.0921901 14.4204 0 14.643 0 14.875C0 15.107 0.0921901 15.3296 0.256279 15.4937C0.420376 15.6578 0.642933 15.75 0.875 15.75H20.125C20.357 15.75 20.5796 15.6578 20.7437 15.4937C20.9078 15.3296 21 15.107 21 14.875C21 14.643 20.9078 14.4204 20.7437 14.2563C20.5796 14.0922 20.357 14 20.125 14Z" fill="white"/>
</svg>
