<svg width="19" height="19" viewBox="0 0 19 19" fill="none" xmlns="http://www.w3.org/2000/svg">
<path d="M18.4971 17.4801L13.9986 12.9825C15.3025 11.4171 15.9526 9.40939 15.8139 7.37691C15.6751 5.34443 14.7581 3.44367 13.2536 2.07007C11.7492 0.696459 9.77295 -0.0442417 7.7363 0.00204577C5.69958 0.0483333 3.75912 0.878044 2.31858 2.31858C0.878044 3.75912 0.0483333 5.69956 0.00204577 7.73628C-0.0442417 9.77301 0.696459 11.7491 2.07006 13.2536C3.44367 14.7581 5.34444 15.6751 7.37692 15.8139C9.4094 15.9527 11.4172 15.3025 12.9825 13.9987L17.4801 18.4971C17.5469 18.5639 17.6262 18.6169 17.7134 18.653C17.8007 18.6892 17.8942 18.7078 17.9886 18.7078C18.0831 18.7078 18.1766 18.6892 18.2638 18.653C18.3511 18.6169 18.4304 18.5639 18.4971 18.4971C18.5639 18.4303 18.6169 18.3511 18.653 18.2638C18.6892 18.1766 18.7077 18.083 18.7077 17.9886C18.7077 17.8942 18.6892 17.8007 18.653 17.7134C18.6169 17.6261 18.5639 17.5469 18.4971 17.4801ZM1.45736 7.92611C1.45736 6.64673 1.83674 5.39603 2.54753 4.33226C3.25834 3.26848 4.26861 2.43937 5.4506 1.94976C6.63266 1.46016 7.93331 1.33206 9.1881 1.58166C10.4429 1.83125 11.5956 2.44734 12.5002 3.35201C13.4049 4.25668 14.021 5.40933 14.2705 6.66412C14.5201 7.91892 14.3921 9.21957 13.9025 10.4016C13.4128 11.5836 12.5838 12.5939 11.5199 13.3047C10.4562 14.0155 9.2055 14.3949 7.92612 14.3949C6.21104 14.393 4.56683 13.7108 3.35411 12.4981C2.1414 11.2854 1.45926 9.64112 1.45736 7.92611Z" fill="white"/>
</svg>
