<svg width="19" height="18" viewBox="0 0 19 18" fill="none" xmlns="http://www.w3.org/2000/svg">
<path d="M18.5995 16.8931C17.2311 14.5275 15.1226 12.8313 12.6617 12.0271C13.879 11.3025 14.8246 10.1983 15.3536 8.88418C15.8826 7.57009 15.9656 6.11865 15.5897 4.75281C15.214 3.38696 14.4003 2.18223 13.2735 1.32362C12.1468 0.46501 10.7694 0 9.35279 0C7.9362 0 6.55872 0.46501 5.432 1.32362C4.30527 2.18223 3.49154 3.38696 3.11576 4.75281C2.73998 6.11865 2.82295 7.57009 3.35191 8.88418C3.88088 10.1983 4.82659 11.3025 6.04381 12.0271C3.583 12.8303 1.47437 14.5266 0.106046 16.8931C0.0558702 16.9749 0.0225849 17.0659 0.00815959 17.1608C-0.00625853 17.2557 -0.00153631 17.3525 0.0220674 17.4456C0.045664 17.5386 0.0876605 17.626 0.14557 17.7025C0.20348 17.7791 0.276138 17.8432 0.359247 17.8912C0.442364 17.9392 0.534249 17.9701 0.629483 17.982C0.724725 17.9939 0.821382 17.9866 0.913763 17.9606C1.00614 17.9346 1.09237 17.8903 1.16736 17.8304C1.24235 17.7705 1.30458 17.6962 1.35038 17.6118C3.04304 14.6865 6.03482 12.9399 9.35279 12.9399C12.6707 12.9399 15.6625 14.6865 17.3551 17.6118C17.4009 17.6962 17.4632 17.7705 17.5382 17.8304C17.6132 17.8903 17.6994 17.9346 17.7918 17.9606C17.8841 17.9866 17.9808 17.9939 18.076 17.982C18.1713 17.9701 18.2632 17.9392 18.3463 17.8912C18.4294 17.8432 18.502 17.7791 18.56 17.7025C18.6179 17.626 18.6599 17.5386 18.6835 17.4456C18.7071 17.3525 18.7118 17.2557 18.6974 17.1608C18.683 17.0659 18.6497 16.9749 18.5995 16.8931ZM4.32152 6.47119C4.32152 5.47608 4.61659 4.50336 5.16945 3.67598C5.72231 2.8486 6.50805 2.20373 7.4274 1.82292C8.34675 1.44212 9.35832 1.34249 10.3343 1.53662C11.3103 1.73075 12.2068 2.20993 12.9104 2.91356C13.614 3.6172 14.0932 4.51368 14.2874 5.48967C14.4815 6.46559 14.3818 7.47723 14.001 8.39658C13.6202 9.31593 12.9754 10.1017 12.148 10.6545C11.3206 11.2074 10.3478 11.5024 9.35279 11.5024C8.01886 11.501 6.73991 10.9705 5.7967 10.0273C4.85348 9.08399 4.32295 7.80512 4.32152 6.47119Z" fill="white"/>
</svg>
