<svg width="24" height="24" viewBox="0 0 24 24" fill="none" xmlns="http://www.w3.org/2000/svg">
<g clip-path="url(#clip0_769_60)">
<path d="M21.1339 20.1165L16.6353 15.6189C17.9392 14.0535 18.5893 12.0458 18.4506 10.0133C18.3118 7.98081 17.3948 6.08006 15.8904 4.70645C14.3859 3.33284 12.4097 2.59214 10.373 2.63843C8.3363 2.68472 6.39584 3.51443 4.9553 4.95497C3.51476 6.39551 2.68505 8.33595 2.63876 10.3727C2.59248 12.4094 3.33318 14.3855 4.70678 15.89C6.08039 17.3945 7.98116 18.3115 10.0136 18.4503C12.0461 18.5891 14.0539 17.9389 15.6192 16.6351L20.1168 21.1335C20.1836 21.2003 20.2629 21.2532 20.3501 21.2894C20.4374 21.3256 20.5309 21.3442 20.6253 21.3442C20.7198 21.3442 20.8133 21.3256 20.9005 21.2894C20.9878 21.2532 21.0671 21.2003 21.1339 21.1335C21.2006 21.0667 21.2536 20.9875 21.2898 20.9002C21.3259 20.8129 21.3444 20.7194 21.3444 20.625C21.3444 20.5305 21.3259 20.437 21.2898 20.3498C21.2536 20.2625 21.2006 20.1832 21.1339 20.1165ZM4.09408 10.5625C4.09408 9.28311 4.47346 8.03242 5.18425 6.96865C5.89505 5.90487 6.90533 5.07575 8.08732 4.58615C9.26938 4.09654 10.57 3.96844 11.8248 4.21804C13.0796 4.46763 14.2323 5.08372 15.1369 5.98839C16.0416 6.89306 16.6577 8.04571 16.9072 9.30051C17.1569 10.5553 17.0288 11.856 16.5392 13.038C16.0496 14.22 15.2205 15.2303 14.1567 15.941C13.0929 16.6519 11.8422 17.0312 10.5628 17.0312C8.84776 17.0294 7.20355 16.3472 5.99083 15.1345C4.77812 13.9218 4.09598 12.2775 4.09408 10.5625Z" fill="white"/>
</g>
<defs>
<clipPath id="clip0_769_60">
<rect width="24" height="24" fill="white"/>
</clipPath>
</defs>
</svg>
